<svg xmlns="http://www.w3.org/2000/svg" width="1024" height="1024" viewBox="0 0 1024 1024" fill="none">
<rect width="1024" height="1024" rx="512" fill="#0052FF"/>
<path d="M512 192C335.452 192 192 335.452 192 512C192 688.548 335.452 832 512 832C688.548 832 832 688.548 832 512C832 335.452 688.548 192 512 192ZM441.5 593.5C441.5 611 427.5 625 410 625H350C332.5 625 318.5 611 318.5 593.5V430.5C318.5 413 332.5 399 350 399H410C427.5 399 441.5 413 441.5 430.5V593.5ZM705.5 593.5C705.5 611 691.5 625 674 625H614C596.5 625 582.5 611 582.5 593.5V430.5C582.5 413 596.5 399 614 399H674C691.5 399 705.5 413 705.5 430.5V593.5Z" fill="white"/>
</svg> 