<?xml version="1.0" encoding="UTF-8"?>
<svg width="112" height="108" viewBox="0 0 112 108" fill="none" xmlns="http://www.w3.org/2000/svg">
<path d="M100.956 3.67871L62.2529 35.3313L69.0875 17.1095L100.956 3.67871Z" fill="#E17726" stroke="#E17726" stroke-width="0.482371" stroke-linecap="round" stroke-linejoin="round"/>
<path d="M10.6184 3.67871L49.0188 35.5996L42.5868 17.1095L10.6184 3.67871Z" fill="#E27625" stroke="#E27625" stroke-width="0.482371" stroke-linecap="round" stroke-linejoin="round"/>
<path d="M86.8452 76.5952L76.6055 93.3173L98.7686 99.6946L105.128 76.8635L86.8452 76.5952Z" fill="#E27625" stroke="#E27625" stroke-width="0.482371" stroke-linecap="round" stroke-linejoin="round"/>
<path d="M6.94824 76.8635L13.2313 99.6946L35.3409 93.3173L25.1547 76.5952L6.94824 76.8635Z" fill="#E27625" stroke="#E27625" stroke-width="0.482371" stroke-linecap="round" stroke-linejoin="round"/>
<path d="M34.1741 48.3317L28.5173 58.1543L50.4121 59.2244L49.675 35.1167L34.1741 48.3317Z" fill="#E27625" stroke="#E27625" stroke-width="0.482371" stroke-linecap="round" stroke-linejoin="round"/>
<path d="M77.4004 48.3317L61.6357 34.8484L61.1671 59.2244L83.0607 58.1543L77.4004 48.3317Z" fill="#E27625" stroke="#E27625" stroke-width="0.482371" stroke-linecap="round" stroke-linejoin="round"/>
<path d="M35.3418 93.3173L49.0737 86.5997L37.3552 77.0732L35.3418 93.3173Z" fill="#E27625" stroke="#E27625" stroke-width="0.482371" stroke-linecap="round" stroke-linejoin="round"/>
<path d="M62.5986 86.5997L76.2771 93.3173L74.3171 77.0732L62.5986 86.5997Z" fill="#E27625" stroke="#E27625" stroke-width="0.482371" stroke-linecap="round" stroke-linejoin="round"/>
<path d="M76.2767 93.3173L62.5981 86.5997L63.6522 95.4839L63.5521 99.427L76.2767 93.3173Z" fill="#D5BFB2" stroke="#D5BFB2" stroke-width="0.482371" stroke-linecap="round" stroke-linejoin="round"/>
<path d="M35.3418 93.3173L48.1198 99.427L48.0731 95.4839L49.0738 86.5997L35.3418 93.3173Z" fill="#D5BFB2" stroke="#D5BFB2" stroke-width="0.482371" stroke-linecap="round" stroke-linejoin="round"/>
<path d="M48.3743 71.2913L37.0022 67.8198L44.7889 64.0804L48.3743 71.2913Z" fill="#233447" stroke="#233447" stroke-width="0.482371" stroke-linecap="round" stroke-linejoin="round"/>
<path d="M63.3047 71.2913L66.8901 64.0804L74.7302 67.8198L63.3047 71.2913Z" fill="#233447" stroke="#233447" stroke-width="0.482371" stroke-linecap="round" stroke-linejoin="round"/>
<path d="M35.3415 93.3173L37.4449 76.5952L25.1553 76.8635L35.3415 93.3173Z" fill="#CC6228" stroke="#CC6228" stroke-width="0.482371" stroke-linecap="round" stroke-linejoin="round"/>
<path d="M74.2266 76.5952L76.3299 93.3173L86.5161 76.8635L74.2266 76.5952Z" fill="#CC6228" stroke="#CC6228" stroke-width="0.482371" stroke-linecap="round" stroke-linejoin="round"/>
<path d="M83.06 58.1543L61.166 59.2244L63.3051 71.2913L66.8905 64.0804L74.7306 67.8198L83.06 58.1543Z" fill="#CC6228" stroke="#CC6228" stroke-width="0.482371" stroke-linecap="round" stroke-linejoin="round"/>
<path d="M37.0018 67.8198L44.8419 64.0804L48.374 71.2913L50.5663 59.2244L28.5156 58.1543L37.0018 67.8198Z" fill="#CC6228" stroke="#CC6228" stroke-width="0.482371" stroke-linecap="round" stroke-linejoin="round"/>
<path d="M28.5156 58.1543L37.3546 77.0732L37.0018 67.8198L28.5156 58.1543Z" fill="#E27525" stroke="#E27525" stroke-width="0.482371" stroke-linecap="round" stroke-linejoin="round"/>
<path d="M74.731 67.8198L74.3247 77.0732L83.0604 58.1543L74.731 67.8198Z" fill="#E27525" stroke="#E27525" stroke-width="0.482371" stroke-linecap="round" stroke-linejoin="round"/>
<path d="M50.5666 59.2244L48.374 71.2913L51.082 85.5298L51.604 66.7497L50.5666 59.2244Z" fill="#E27525" stroke="#E27525" stroke-width="0.482371" stroke-linecap="round" stroke-linejoin="round"/>
<path d="M61.1662 59.2244L60.1821 66.7497L60.5885 85.5298L63.3499 71.2913L61.1662 59.2244Z" fill="#E27525" stroke="#E27525" stroke-width="0.482371" stroke-linecap="round" stroke-linejoin="round"/>
<path d="M63.3042 71.2913L60.5884 85.5298L62.5951 86.5997L74.3136 77.0732L74.7198 67.8198L63.3042 71.2913Z" fill="#F5841F" stroke="#F5841F" stroke-width="0.482371" stroke-linecap="round" stroke-linejoin="round"/>
<path d="M37.002 67.8198L37.3551 77.0732L49.0736 86.5997L51.0802 85.5298L48.3736 71.2913L37.002 67.8198Z" fill="#F5841F" stroke="#F5841F" stroke-width="0.482371" stroke-linecap="round" stroke-linejoin="round"/>
<path d="M63.5502 99.427L63.6503 95.4839L62.6662 94.6455H49.0033L48.0726 95.4839L48.1193 99.427L35.3412 93.3173L39.6968 96.8422L48.8567 103.102H62.8033L71.9632 96.8422L76.2654 93.3173L63.5502 99.427Z" fill="#C0AC9D" stroke="#C0AC9D" stroke-width="0.482371" stroke-linecap="round" stroke-linejoin="round"/>
<path d="M62.5973 86.5997L60.5906 85.5298H51.0813L49.0746 86.5997L48.0739 95.4839L49.0046 94.6455H62.6675L63.6515 95.4839L62.5973 86.5997Z" fill="#161616" stroke="#161616" stroke-width="0.482371" stroke-linecap="round" stroke-linejoin="round"/>
<path d="M102.944 38.2394L106.066 21.6172L100.956 3.67871L62.5986 34.8484L77.399 48.3317L98.1547 54.6557L102.483 49.1326L100.526 47.7942L103.646 45.0174L101.215 43.2694L104.335 40.949L102.944 38.2394Z" fill="#763E1A" stroke="#763E1A" stroke-width="0.482371" stroke-linecap="round" stroke-linejoin="round"/>
<path d="M5.61035 21.6172L8.73305 38.2394L7.2883 40.949L10.4549 43.2694L8.02353 45.0174L11.1462 47.7942L9.18957 49.1326L13.4651 54.6557L34.2208 48.3317L49.0212 34.8484L10.6641 3.67871L5.61035 21.6172Z" fill="#763E1A" stroke="#763E1A" stroke-width="0.482371" stroke-linecap="round" stroke-linejoin="round"/>
<path d="M98.1546 54.6557L77.399 48.3317L83.0593 58.1543L74.3236 77.0732L86.4532 76.8635H105.066L98.1546 54.6557Z" fill="#F5841F" stroke="#F5841F" stroke-width="0.482371" stroke-linecap="round" stroke-linejoin="round"/>
<path d="M34.2212 48.3317L13.4655 54.6557L6.60083 76.8635H25.1603L37.2369 77.0732L28.5012 58.1543L34.2212 48.3317Z" fill="#F5841F" stroke="#F5841F" stroke-width="0.482371" stroke-linecap="round" stroke-linejoin="round"/>
<path d="M61.1659 59.2244L62.5977 34.8484L69.087 17.1095H42.5859L49.0218 34.8484L50.5669 59.2244L51.0354 66.8131L51.0821 85.5298H60.5914L60.6914 66.8131L61.1659 59.2244Z" fill="#F5841F" stroke="#F5841F" stroke-width="0.482371" stroke-linecap="round" stroke-linejoin="round"/>
</svg> 